HIERARCHY
ROOT Hips
{
	OFFSET 0.053599 88.859886 3.107447
	CHANNELS 6 Xposition Yposition Zposition Zrotation Yrotation Xrotation 
	JOINT Spine
	{
		OFFSET -0.000000 8.814246 -2.080107
		CHANNELS 3 Zrotation Yrotation Xrotation
		JOINT Spine1
		{
			OFFSET 0.000000 8.844141 0.000000
			CHANNELS 3 Zrotation Yrotation Xrotation
			JOINT Spine2
			{
				OFFSET -0.000000 11.682268 0.000000
				CHANNELS 3 Zrotation Yrotation Xrotation
				JOINT Spine3
				{
					OFFSET 0.000000 11.746700 0.000000
					CHANNELS 3 Zrotation Yrotation Xrotation
					JOINT Neck
					{
						OFFSET -0.000000 17.658264 -0.000000
						CHANNELS 3 Zrotation Yrotation Xrotation
						JOINT Neck1
						{
							OFFSET -0.000000 5.101515 -0.000000
							CHANNELS 3 Zrotation Yrotation Xrotation
							JOINT Head
							{
								OFFSET 0.000000 5.101515 0.000000
								CHANNELS 3 Zrotation Yrotation Xrotation
								JOINT HeadEnd
								{
									OFFSET 0.000000 11.655085 0.000000
									CHANNELS 3 Zrotation Yrotation Xrotation
									End Site
									{
										OFFSET 0.000000 0.000000 0.000000
									}
								}
							}
						}
					}
					JOINT RightShoulder
					{
						OFFSET -2.625389 11.175210 0.000000
						CHANNELS 3 Zrotation Yrotation Xrotation
						JOINT RightArm
						{
							OFFSET -0.000000 10.434715 -0.000000
							CHANNELS 3 Zrotation Yrotation Xrotation
							JOINT RightForeArm
							{
								OFFSET -0.000000 29.628420 0.000000
								CHANNELS 3 Zrotation Yrotation Xrotation
								JOINT RightHand
								{
									OFFSET -0.000000 22.857611 0.000000
									CHANNELS 3 Zrotation Yrotation Xrotation
									JOINT RightHandThumb1
									{
										OFFSET -2.867323 3.959563 2.944291
										CHANNELS 3 Zrotation Yrotation Xrotation
										JOINT RightHandThumb2
										{
											OFFSET 0.000000 3.350399 0.000000
											CHANNELS 3 Zrotation Yrotation Xrotation
											JOINT RightHandThumb3
											{
												OFFSET 0.000000 3.756509 -0.000000
												CHANNELS 3 Zrotation Yrotation Xrotation
												JOINT RightHandThumb4
												{
													OFFSET 0.000000 3.147345 0.000000
													CHANNELS 3 Zrotation Yrotation Xrotation
													End Site
													{
														OFFSET 0.000000 0.000000 0.000000
													}
												}
											}
										}
									}
									JOINT RightHandIndex1
									{
										OFFSET -0.086752 10.030893 2.345280
										CHANNELS 3 Zrotation Yrotation Xrotation
										JOINT RightHandIndex2
										{
											OFFSET -0.000000 4.061090 0.000000
											CHANNELS 3 Zrotation Yrotation Xrotation
											JOINT RightHandIndex3
											{
												OFFSET -0.000000 3.248873 0.000000
												CHANNELS 3 Zrotation Yrotation Xrotation
												JOINT RightHandIndex4
												{
													OFFSET 0.000000 2.639709 -0.000000
													CHANNELS 3 Zrotation Yrotation Xrotation
													End Site
													{
														OFFSET 0.000000 0.000000 0.000000
													}
												}
											}
										}
									}
									JOINT RightHandMiddle1
									{
										OFFSET 0.104102 9.502952 0.006768
										CHANNELS 3 Zrotation Yrotation Xrotation
										JOINT RightHandMiddle2
										{
											OFFSET 0.000000 4.568727 0.000000
											CHANNELS 3 Zrotation Yrotation Xrotation
											JOINT RightHandMiddle3
											{
												OFFSET 0.000000 3.654981 -0.000000
												CHANNELS 3 Zrotation Yrotation Xrotation
												JOINT RightHandMiddle4
												{
													OFFSET -0.000000 2.741236 -0.000000
													CHANNELS 3 Zrotation Yrotation Xrotation
													End Site
													{
														OFFSET 0.000000 0.000000 0.000000
													}
												}
											}
										}
									}
									JOINT RightHandRing1
									{
										OFFSET 0.086752 8.921708 -2.267442
										CHANNELS 3 Zrotation Yrotation Xrotation
										JOINT RightHandRing2
										{
											OFFSET -0.000000 4.061090 0.000000
											CHANNELS 3 Zrotation Yrotation Xrotation
											JOINT RightHandRing3
											{
												OFFSET 0.000000 3.654981 -0.000000
												CHANNELS 3 Zrotation Yrotation Xrotation
												JOINT RightHandRing4
												{
													OFFSET 0.000000 2.741236 -0.000000
													CHANNELS 3 Zrotation Yrotation Xrotation
													End Site
													{
														OFFSET 0.000000 0.000000 0.000000
													}
												}
											}
										}
									}
									JOINT RightHandPinky1
									{
										OFFSET -0.173504 7.976997 -4.467199
										CHANNELS 3 Zrotation Yrotation Xrotation
										JOINT RightHandPinky2
										{
											OFFSET 0.000000 3.350399 -0.000000
											CHANNELS 3 Zrotation Yrotation Xrotation
											JOINT RightHandPinky3
											{
												OFFSET -0.000000 2.842763 0.000000
												CHANNELS 3 Zrotation Yrotation Xrotation
												JOINT RightHandPinky4
												{
													OFFSET -0.000000 2.639709 0.000000
													CHANNELS 3 Zrotation Yrotation Xrotation
													End Site
													{
														OFFSET 0.000000 0.000000 0.000000
													}
												}
											}
										}
									}
									JOINT RightForeArmEnd
									{
										OFFSET 0.000000 0.000000 0.000000
										CHANNELS 3 Zrotation Yrotation Xrotation
										End Site
										{
											OFFSET 0.000000 0.000000 0.000000
										}
									}
								}
								JOINT RightArmEnd
								{
									OFFSET 0.000000 0.000000 0.000000
									CHANNELS 3 Zrotation Yrotation Xrotation
									End Site
									{
										OFFSET 0.000000 0.000000 0.000000
									}
								}
							}
						}
					}
					JOINT LeftShoulder
					{
						OFFSET 2.625389 11.175210 0.000000
						CHANNELS 3 Zrotation Yrotation Xrotation
						JOINT LeftArm
						{
							OFFSET 0.000000 10.813635 -0.000000
							CHANNELS 3 Zrotation Yrotation Xrotation
							JOINT LeftForeArm
							{
								OFFSET 0.000000 28.724781 0.000000
								CHANNELS 3 Zrotation Yrotation Xrotation
								JOINT LeftHand
								{
									OFFSET 0.644384 25.716167 -0.328871
									CHANNELS 3 Zrotation Yrotation Xrotation
									JOINT LeftHandThumb1
									{
										OFFSET 2.867323 3.959563 2.944291
										CHANNELS 3 Zrotation Yrotation Xrotation
										JOINT LeftHandThumb2
										{
											OFFSET 0.000000 3.350399 0.000000
											CHANNELS 3 Zrotation Yrotation Xrotation
											JOINT LeftHandThumb3
											{
												OFFSET -0.000000 3.756509 0.000000
												CHANNELS 3 Zrotation Yrotation Xrotation
												JOINT LeftHandThumb4
												{
													OFFSET -0.000000 3.100000 0.000000
													CHANNELS 3 Zrotation Yrotation Xrotation
													End Site
													{
														OFFSET 0.000000 0.000000 0.000000
													}
												}
											}
										}
									}
									JOINT LeftHandIndex1
									{
										OFFSET 0.086752 10.030893 2.345280
										CHANNELS 3 Zrotation Yrotation Xrotation
										JOINT LeftHandIndex2
										{
											OFFSET -0.000000 4.061090 -0.000000
											CHANNELS 3 Zrotation Yrotation Xrotation
											JOINT LeftHandIndex3
											{
												OFFSET 0.000000 3.248873 -0.000000
												CHANNELS 3 Zrotation Yrotation Xrotation
												JOINT LeftHandIndex4
												{
													OFFSET 0.000000 2.639709 -0.000000
													CHANNELS 3 Zrotation Yrotation Xrotation
													End Site
													{
														OFFSET 0.000000 0.000000 0.000000
													}
												}
											}
										}
									}
									JOINT LeftHandMiddle1
									{
										OFFSET -0.104102 9.502952 0.006768
										CHANNELS 3 Zrotation Yrotation Xrotation
										JOINT LeftHandMiddle2
										{
											OFFSET -0.000000 4.568727 -0.000000
											CHANNELS 3 Zrotation Yrotation Xrotation
											JOINT LeftHandMiddle3
											{
												OFFSET 0.000000 3.654981 0.000000
												CHANNELS 3 Zrotation Yrotation Xrotation
												JOINT LeftHandMiddle4
												{
													OFFSET 0.000000 2.741236 -0.000000
													CHANNELS 3 Zrotation Yrotation Xrotation
													End Site
													{
														OFFSET 0.000000 0.000000 0.000000
													}
												}
											}
										}
									}
									JOINT LeftHandRing1
									{
										OFFSET -0.086752 8.921708 -2.267442
										CHANNELS 3 Zrotation Yrotation Xrotation
										JOINT LeftHandRing2
										{
											OFFSET 0.000000 4.061090 0.000000
											CHANNELS 3 Zrotation Yrotation Xrotation
											JOINT LeftHandRing3
											{
												OFFSET 0.000000 3.654981 0.000000
												CHANNELS 3 Zrotation Yrotation Xrotation
												JOINT LeftHandRing4
												{
													OFFSET 0.000000 2.741236 0.000000
													CHANNELS 3 Zrotation Yrotation Xrotation
													End Site
													{
														OFFSET 0.000000 0.000000 0.000000
													}
												}
											}
										}
									}
									JOINT LeftHandPinky1
									{
										OFFSET 0.173504 7.976997 -4.467199
										CHANNELS 3 Zrotation Yrotation Xrotation
										JOINT LeftHandPinky2
										{
											OFFSET -0.000000 3.350399 -0.000000
											CHANNELS 3 Zrotation Yrotation Xrotation
											JOINT LeftHandPinky3
											{
												OFFSET 0.000000 2.842763 0.000000
												CHANNELS 3 Zrotation Yrotation Xrotation
												JOINT LeftHandPinky4
												{
													OFFSET -0.000000 2.639709 -0.000000
													CHANNELS 3 Zrotation Yrotation Xrotation
													End Site
													{
														OFFSET 0.000000 0.000000 0.000000
													}
												}
											}
										}
									}
									JOINT LeftForeArmEnd
									{
										OFFSET 0.000000 0.000000 0.000000
										CHANNELS 3 Zrotation Yrotation Xrotation
										End Site
										{
											OFFSET 0.000000 0.000000 0.000000
										}
									}
								}
								JOINT LeftArmEnd
								{
									OFFSET 0.000000 0.000000 0.000000
									CHANNELS 3 Zrotation Yrotation Xrotation
									End Site
									{
										OFFSET 0.000000 0.000000 0.000000
									}
								}
							}
						}
					}
				}
			}
		}
	}
	JOINT RightUpLeg
	{
		OFFSET -11.289943 0.000000 0.000000
		CHANNELS 3 Zrotation Yrotation Xrotation
		JOINT RightLeg
		{
			OFFSET 0.000000 -38.200325 0.000000
			CHANNELS 3 Zrotation Yrotation Xrotation
			JOINT RightFoot
			{
				OFFSET -0.000000 -39.900856 -0.000000
				CHANNELS 3 Zrotation Yrotation Xrotation
				JOINT RightToeBase
				{
					OFFSET 0.000000 0.000000 15.261641
					CHANNELS 3 Zrotation Yrotation Xrotation
					JOINT RightToeBaseEnd
					{
						OFFSET 0.000000 0.000000 7.370709
						CHANNELS 3 Zrotation Yrotation Xrotation
						End Site
						{
							OFFSET 0.000000 0.000000 0.000000
						}
					}
				}
				JOINT RightLegEnd
				{
					OFFSET 0.000000 0.000000 0.000000
					CHANNELS 3 Zrotation Yrotation Xrotation
					End Site
					{
						OFFSET 0.000000 0.000000 0.000000
					}
				}
			}
			JOINT RightUpLegEnd
			{
				OFFSET 0.000000 0.000000 0.000000
				CHANNELS 3 Zrotation Yrotation Xrotation
				End Site
				{
					OFFSET 0.000000 0.000000 0.000000
				}
			}
		}
	}
	JOINT LeftUpLeg
	{
		OFFSET 11.315661 -0.000000 0.000000
		CHANNELS 3 Zrotation Yrotation Xrotation
		JOINT LeftLeg
		{
			OFFSET -0.000000 -38.200325 -0.000000
			CHANNELS 3 Zrotation Yrotation Xrotation
			JOINT LeftFoot
			{
				OFFSET 0.000000 -39.900856 -0.000000
				CHANNELS 3 Zrotation Yrotation Xrotation
				JOINT LeftToeBase
				{
					OFFSET -0.000000 -0.000000 15.261641
					CHANNELS 3 Zrotation Yrotation Xrotation
					JOINT LeftToeBaseEnd
					{
						OFFSET 0.000000 -0.000000 7.539996
						CHANNELS 3 Zrotation Yrotation Xrotation
						End Site
						{
							OFFSET 0.000000 0.000000 0.000000
						}
					}
				}
				JOINT LeftLegEnd
				{
					OFFSET 0.000000 0.000000 0.000000
					CHANNELS 3 Zrotation Yrotation Xrotation
					End Site
					{
						OFFSET 0.000000 0.000000 0.000000
					}
				}
			}
			JOINT LeftUpLegEnd
			{
				OFFSET 0.000000 0.000000 0.000000
				CHANNELS 3 Zrotation Yrotation Xrotation
				End Site
				{
					OFFSET 0.000000 0.000000 0.000000
				}
			}
		}
	}
}
MOTION
Frames: 5
Frame Time: 0.016667
-0.262049 87.444336 2.531073 0.116621 1.451659 -10.900647 1.384736 0.125549 7.347227 -0.110941 0.337297 1.850016 0.069622 0.410378 6.712901 -1.008189 0.539227 4.949626 2.517229 -1.526894 4.450171 0.282780 -0.297285 -2.962360 0.018872 -0.925320 -20.615845 0.000000 0.000000 0.000000 93.333290 -0.805118 9.163057 68.258728 -18.790976 1.237827 -0.088185 18.183407 31.418179 7.823789 15.716848 -11.340520 8.862389 -1.650015 40.591267 -0.000002 0.000030 -21.538412 0.000018 0.000066 -14.857677 0.000008 0.000001 -0.000028 5.350864 0.106089 -4.393362 4.381914 -0.084394 0.251887 4.382808 -0.054418 0.212845 -0.000011 0.000044 -0.000019 4.921200 0.031069 -7.222527 3.961079 -0.044572 0.093374 3.996554 -0.021554 0.091212 0.000001 0.000015 0.000008 6.779042 -0.059611 -10.214745 4.700202 0.073366 -0.147349 4.681431 0.032534 -0.114673 -0.000018 0.001283 0.000012 8.799537 -0.141396 -14.446625 5.455760 0.175850 -0.246951 5.465700 0.054285 -0.189967 0.000048 -0.000001 -0.000019 0.000000 0.000000 0.000000 0.000000 0.000000 0.000000 -89.505997 0.201849 3.353207 -72.108185 5.764542 -8.135993 -0.248992 -15.012127 71.631622 -3.145985 -15.994917 -9.646589 -7.782114 1.439588 41.046791 0.000028 0.000028 -19.217585 0.000008 -0.000025 -13.337433 0.002267 0.000013 0.000295 -2.073023 0.153616 0.084483 -2.563993 -0.058114 -0.235221 -2.749381 -0.031619 -0.229838 -0.000008 -0.001150 -0.000006 -3.444909 0.074944 -4.305217 -2.766691 -0.030689 -0.108414 -2.548548 -0.010886 -0.090554 0.000432 -0.000017 -0.000061 -8.013618 -0.026301 -10.203794 -4.720748 0.057307 0.097816 -4.301944 0.002459 0.074631 0.000319 0.000014 0.000010 -10.793341 -0.078626 -16.711126 -6.712943 0.086820 0.320976 -6.697151 0.002603 0.219504 0.000185 0.000003 -0.000054 0.000000 0.000000 0.000000 0.000000 0.000000 0.000000 -1.601666 -10.769841 16.579094 -0.068931 -0.662251 4.710370 -1.697114 -8.678771 16.535189 -0.996215 0.731164 -18.143930 0.000000 0.000000 0.000000 0.000000 0.000000 0.000000 0.000000 0.000000 0.000000 -1.361468 -4.939462 10.906178 0.051295 0.369261 9.041422 3.800394 -1.990725 16.190601 0.284071 -0.512852 -19.936012 0.000000 0.000000 0.000000 0.000000 0.000000 0.000000 0.000000 0.000000 0.000000 
-0.261125 87.441948 2.515073 0.109924 1.417797 -10.917910 1.381364 0.126036 7.366589 -0.110530 0.336884 1.865787 0.058565 0.399935 6.724238 -1.005514 0.529360 4.941262 2.519554 -1.504442 4.488034 0.285578 -0.275669 -2.943001 0.017843 -0.922228 -20.600504 0.000000 0.000000 0.000000 93.326759 -0.801264 9.187990 68.225639 -18.858789 1.319173 -0.093739 18.202457 31.518320 7.749820 15.685896 -11.300450 8.870697 -1.650463 40.588181 -0.000002 0.000030 -21.558332 0.000018 0.000066 -14.873507 0.000008 0.000001 -0.000028 5.439234 0.107342 -4.399441 4.437439 -0.082801 0.248832 4.436410 -0.052887 0.210356 -0.000011 0.000044 -0.000019 5.004736 0.031198 -7.216468 4.008967 -0.043865 0.092350 4.046274 -0.021086 0.090533 0.000001 0.000015 0.000008 6.860722 -0.059848 -10.199092 4.751966 0.072510 -0.146470 4.732738 0.031931 -0.113792 -0.000018 0.001245 0.000012 8.867518 -0.142023 -14.409251 5.505754 0.172893 -0.243521 5.516798 0.052461 -0.187061 0.000032 -0.000000 -0.000019 0.000000 0.000000 0.000000 0.000000 0.000000 0.000000 -89.490768 0.182014 3.382150 -72.074959 5.838700 -8.045028 -0.242107 -15.023316 71.464371 -3.105903 -16.022024 -9.744792 -7.752640 1.435612 41.061703 0.000028 0.000028 -19.142496 0.000005 -0.000025 -13.286196 0.002274 0.000013 0.000265 -1.885660 0.153913 0.088841 -2.475529 -0.057221 -0.237959 -2.661481 -0.030780 -0.233073 -0.000008 -0.001153 -0.000006 -3.276134 0.075108 -4.299080 -2.678692 -0.030447 -0.109822 -2.459790 -0.010707 -0.091722 0.000396 -0.000017 -0.000062 -7.869176 -0.026344 -10.203622 -4.625313 0.057092 0.100723 -4.208875 0.002413 0.076649 0.000322 0.000014 0.000010 -10.665189 -0.079033 -16.707045 -6.625217 0.086160 0.328972 -6.611070 0.002107 0.226506 0.000191 0.000003 -0.000054 0.000000 0.000000 0.000000 0.000000 0.000000 0.000000 -1.612889 -10.782449 16.588972 -0.068543 -0.660645 4.695421 -1.703507 -8.676889 16.567497 -0.994103 0.728774 -18.157579 0.000000 0.000000 0.000000 0.000000 0.000000 0.000000 0.000000 0.000000 0.000000 -1.354723 -4.912000 10.912255 0.051882 0.372304 9.049651 3.802048 -2.003207 16.185999 0.285281 -0.516962 -19.939781 0.000000 0.000000 0.000000 0.000000 0.000000 0.000000 0.000000 0.000000 0.000000 
-0.259389 87.439835 2.499047 0.104961 1.383042 -10.933969 1.375878 0.126198 7.385970 -0.110983 0.336310 1.879310 0.048356 0.389597 6.735351 -1.001395 0.519755 4.932584 2.525540 -1.487816 4.522865 0.288071 -0.257772 -2.924660 0.018380 -0.918601 -20.584196 0.000000 0.000000 0.000000 93.321899 -0.798317 9.209147 68.192207 -18.906567 1.393226 -0.100008 18.220682 31.616579 7.677859 15.655938 -11.265706 8.880167 -1.651163 40.584438 -0.000002 0.000030 -21.581419 0.000018 0.000066 -14.891176 0.000008 0.000001 -0.000028 5.533553 0.108501 -4.406114 4.493884 -0.081336 0.245770 4.490770 -0.051489 0.207814 -0.000011 0.000044 -0.000019 5.092688 0.031286 -7.211894 4.058524 -0.043205 0.091267 4.097585 -0.020645 0.089792 0.000000 0.000015 0.000009 6.942921 -0.060050 -10.187219 4.804929 0.071737 -0.145638 4.785300 0.031394 -0.112933 -0.000018 0.001203 0.000012 8.932803 -0.142686 -14.376830 5.556650 0.170290 -0.240623 5.568875 0.050948 -0.184413 0.000019 -0.000000 -0.000019 0.000000 0.000000 0.000000 0.000000 0.000000 0.000000 -89.473465 0.161863 3.408412 -72.044373 5.907544 -7.959130 -0.234847 -15.032921 71.285789 -3.074958 -16.063797 -9.847681 -7.726952 1.432081 41.074818 0.000029 0.000028 -19.076820 0.000003 -0.000025 -13.241351 0.002281 0.000012 0.000242 -1.718483 0.154141 0.089742 -2.397743 -0.056358 -0.240099 -2.583907 -0.029975 -0.235598 -0.000008 -0.001155 -0.000006 -3.124993 0.075242 -4.295822 -2.601681 -0.030211 -0.110960 -2.382277 -0.010531 -0.092626 0.000362 -0.000017 -0.000062 -7.739016 -0.026386 -10.205220 -4.541005 0.056908 0.103282 -4.126953 0.002388 0.078373 0.000321 0.000014 0.000010 -10.549769 -0.079556 -16.703014 -6.547967 0.085678 0.336219 -6.535808 0.001740 0.232667 0.000196 0.000003 -0.000054 0.000000 0.000000 0.000000 0.000000 0.000000 0.000000 -1.625516 -10.794261 16.598152 -0.068253 -0.659397 4.680624 -1.709887 -8.673341 16.596794 -0.992367 0.726688 -18.169754 0.000000 0.000000 0.000000 0.000000 0.000000 0.000000 0.000000 0.000000 0.000000 -1.350531 -4.882533 10.917496 0.052355 0.374892 9.055916 3.805592 -2.013075 16.182280 0.286380 -0.520742 -19.943701 0.000000 0.000000 0.000000 0.000000 0.000000 0.000000 0.000000 0.000000 0.000000 
-0.257037 87.437965 2.483105 0.101490 1.347544 -10.948580 1.368446 0.126076 7.405194 -0.111972 0.335530 1.890726 0.038995 0.379361 6.746192 -0.995905 0.510421 4.923691 2.534790 -1.475799 4.554546 0.290269 -0.242699 -2.907307 0.020041 -0.914537 -20.567055 0.000000 0.000000 0.000000 93.318451 -0.796041 9.226584 68.158997 -18.937105 1.460915 -0.106995 18.237240 31.711357 7.607091 15.626883 -11.233759 8.891304 -1.652157 40.579830 -0.000002 0.000030 -21.608873 0.000018 0.000066 -14.911503 0.000008 0.000001 -0.000028 5.635866 0.109577 -4.413377 4.552532 -0.080021 0.242692 4.547289 -0.050245 0.205202 -0.000011 0.000044 -0.000019 5.187216 0.031335 -7.208508 4.110884 -0.042600 0.090131 4.151608 -0.020237 0.088990 0.000000 0.000015 0.000009 7.027673 -0.060225 -10.177782 4.860241 0.071070 -0.144851 4.840311 0.030934 -0.112093 -0.000017 0.001158 0.000012 8.996696 -0.143430 -14.347078 5.609335 0.168098 -0.238270 5.622870 0.049785 -0.182055 0.000007 -0.000000 -0.000019 0.000000 0.000000 0.000000 0.000000 0.000000 0.000000 -89.454910 0.141546 3.432050 -72.015648 5.971430 -7.878640 -0.227336 -15.041189 71.095284 -3.051482 -16.117891 -9.953948 -7.705354 1.429031 41.085972 0.000029 0.000028 -19.021433 0.000000 -0.000025 -13.203445 0.002288 0.000012 0.000223 -1.574278 0.154304 0.086875 -2.331780 -0.055528 -0.241590 -2.517908 -0.029200 -0.237363 -0.000007 -0.001155 -0.000006 -2.994344 0.075349 -4.295451 -2.536726 -0.029982 -0.111808 -2.317020 -0.010359 -0.093258 0.000329 -0.000017 -0.000062 -7.626112 -0.026430 -10.207690 -4.469196 0.056749 0.105462 -4.057500 0.002378 0.079788 0.000317 0.000014 0.000010 -10.449844 -0.080228 -16.697420 -6.482466 0.085358 0.342619 -6.472641 0.001493 0.237938 0.000200 0.000003 -0.000054 0.000000 0.000000 0.000000 0.000000 0.000000 0.000000 -1.638722 -10.805073 16.606350 -0.068055 -0.658494 4.666394 -1.716346 -8.668798 16.623014 -0.990998 0.724929 -18.180786 0.000000 0.000000 0.000000 0.000000 0.000000 0.000000 0.000000 0.000000 0.000000 -1.348334 -4.851683 10.921700 0.052730 0.377078 9.060669 3.810667 -2.021049 16.179258 0.287326 -0.524183 -19.947714 0.000000 0.000000 0.000000 0.000000 0.000000 0.000000 0.000000 0.000000 0.000000 
-0.254255 87.436340 2.467323 0.099338 1.311356 -10.961538 1.359284 0.125726 7.424047 -0.113179 0.334511 1.900154 0.030442 0.369430 6.756767 -0.989211 0.501446 4.914659 2.546868 -1.467177 4.582765 0.292193 -0.229539 -2.891030 0.022469 -0.910131 -20.549160 0.000000 0.000000 0.000000 93.316078 -0.794282 9.240716 68.126396 -18.953657 1.523130 -0.114642 18.251976 31.801174 7.536440 15.597631 -11.202649 8.904481 -1.653481 40.574192 -0.000002 0.000031 -21.641556 0.000018 0.000066 -14.935096 0.000008 0.000001 -0.000028 5.747590 0.110570 -4.421877 4.614199 -0.078878 0.239616 4.606879 -0.049170 0.202535 -0.000011 0.000044 -0.000019 5.289981 0.031347 -7.206536 4.166751 -0.042060 0.088959 4.209069 -0.019869 0.088136 0.000000 0.000016 0.000009 7.116947 -0.060371 -10.169948 4.918816 0.070525 -0.144114 4.898685 0.030556 -0.111274 -0.000017 0.001113 0.000012 9.060838 -0.144262 -14.318324 5.664542 0.166353 -0.236457 5.679543 0.048987 -0.180008 -0.000003 -0.000000 -0.000019 0.000000 0.000000 0.000000 0.000000 0.000000 0.000000 -89.435860 0.121300 3.453314 -71.987747 6.031764 -7.803589 -0.219726 -15.048283 70.893211 -3.032558 -16.180593 -10.062163 -7.688200 1.426519 41.094997 0.000029 0.000028 -18.977291 -0.000003 -0.000025 -13.173092 0.002296 0.000012 0.000211 -1.456165 0.154395 0.079314 -2.278851 -0.054738 -0.242413 -2.464794 -0.028455 -0.238369 -0.000007 -0.001155 -0.000006 -2.887153 0.075430 -4.298363 -2.484947 -0.029762 -0.112360 -2.265117 -0.010193 -0.093617 0.000296 -0.000017 -0.000063 -7.533459 -0.026487 -10.210420 -4.411305 0.056611 0.107251 -4.001859 0.002382 0.080885 0.000311 0.000014 0.000010 -10.368083 -0.081071 -16.688732 -6.429978 0.085187 0.348100 -6.422781 0.001355 0.242289 0.000203 0.000003 -0.000054 0.000000 0.000000 0.000000 0.000000 0.000000 0.000000 -1.651968 -10.814676 16.613405 -0.067940 -0.657913 4.652818 -1.722868 -8.663766 16.646391 -0.989993 0.723522 -18.190960 0.000000 0.000000 0.000000 0.000000 0.000000 0.000000 0.000000 0.000000 0.000000 -1.347688 -4.820032 10.924824 0.053023 0.378929 9.064044 3.816889 -2.027896 16.176861 0.288083 -0.527307 -19.951643 0.000000 0.000000 0.000000 0.000000 0.000000 0.000000 0.000000 0.000000 0.000000 
